<svg width="768" height="896" viewBox="0 0 768 896" fill="none" xmlns="http://www.w3.org/2000/svg">
<path d="M704 320H448V64H64V832H704V320ZM677.504 256L512 90.496V256H677.504ZM32 0H512L768 256V864C768 872.487 764.629 880.626 758.627 886.627C752.626 892.629 744.487 896 736 896H32C23.5131 896 15.3738 892.629 9.37259 886.627C3.37143 880.626 0 872.487 0 864V32C0 23.5131 3.37143 15.3737 9.37259 9.37258C15.3738 3.37142 23.5131 0 32 0ZM192 448H576V512H192V448ZM192 256H352V320H192V256ZM192 640H576V704H192V640Z" fill="black"/>
</svg>
